<svg width="1920" height="979" xmlns="http://www.w3.org/2000/svg"><g><path d="M-83.63504564389586,-40.151517475023866L-126.18856555782259,278.91890295781195L-33.331551449373364,89.51045935973525Z" fill="#c3294d" stroke="#c3294d" fill-opacity="1" stroke-opacity="1"/><path d="M-83.63504564389586,-40.151517475023866L-33.331551449373364,89.51045935973525L31.371834883466363,31.463106460869312Z" fill="#b21749" stroke="#b21749" fill-opacity="1" stroke-opacity="1"/><path d="M-83.63504564389586,-40.151517475023866L31.371834883466363,31.463106460869312L124.93058818392456,-52.297248942777514Z" fill="#aa1248" stroke="#aa1248" fill-opacity="1" stroke-opacity="1"/><path d="M-83.63504564389586,-40.151517475023866L124.93058818392456,-52.297248942777514L238.6265662126243,-84.54556424170732Z" fill="#a71546" stroke="#a71546" fill-opacity="1" stroke-opacity="1"/><path d="M124.93058818392456,-52.297248942777514L31.371834883466363,31.463106460869312L107.1155671030283,171.74760754220188Z" fill="#cb2a4f" stroke="#cb2a4f" fill-opacity="1" stroke-opacity="1"/><path d="M124.93058818392456,-52.297248942777514L107.1155671030283,171.74760754220188L278.1962446309626,126.45695068873465Z" fill="#e13e55" stroke="#e13e55" fill-opacity="1" stroke-opacity="1"/><path d="M124.93058818392456,-52.297248942777514L278.1962446309626,126.45695068873465L238.6265662126243,-84.54556424170732Z" fill="#ca334e" stroke="#ca334e" fill-opacity="1" stroke-opacity="1"/><path d="M238.6265662126243,-84.54556424170732L278.1962446309626,126.45695068873465L347.5089194253087,74.71879824064672Z" fill="#de444f" stroke="#de444f" fill-opacity="1" stroke-opacity="1"/><path d="M238.6265662126243,-84.54556424170732L347.5089194253087,74.71879824064672L421.0216080956161,-99.34717043302953Z" fill="#c83b47" stroke="#c83b47" fill-opacity="1" stroke-opacity="1"/><path d="M421.0216080956161,-99.34717043302953L347.5089194253087,74.71879824064672L492.06953099928796,-22.69663662649691Z" fill="#d44b4a" stroke="#d44b4a" fill-opacity="1" stroke-opacity="1"/><path d="M421.0216080956161,-99.34717043302953L492.06953099928796,-22.69663662649691L721.4890230540186,-36.63286794908345Z" fill="#ca5951" stroke="#ca5951" fill-opacity="1" stroke-opacity="1"/><path d="M421.0216080956161,-99.34717043302953L721.4890230540186,-36.63286794908345L878.2342502474785,-51.529234210029244Z" fill="#c8695d" stroke="#c8695d" fill-opacity="1" stroke-opacity="1"/><path d="M421.0216080956161,-99.34717043302953L878.2342502474785,-51.529234210029244L1676.0010559111834,-82.66809487715364Z" fill="#b27b6e" stroke="#b27b6e" fill-opacity="1" stroke-opacity="1"/><path d="M421.0216080956161,-99.34717043302953L1676.0010559111834,-82.66809487715364L1912.3533632978797,-93.07685575447977Z" fill="#746272" stroke="#746272" fill-opacity="1" stroke-opacity="1"/><path d="M492.06953099928796,-22.69663662649691L347.5089194253087,74.71879824064672L541.4001968689263,109.22150527127087Z" fill="#ec6053" stroke="#ec6053" fill-opacity="1" stroke-opacity="1"/><path d="M492.06953099928796,-22.69663662649691L541.4001968689263,109.22150527127087L688.9788709022105,46.225951071828604Z" fill="#ec715b" stroke="#ec715b" fill-opacity="1" stroke-opacity="1"/><path d="M492.06953099928796,-22.69663662649691L688.9788709022105,46.225951071828604L721.4890230540186,-36.63286794908345Z" fill="#db6f5e" stroke="#db6f5e" fill-opacity="1" stroke-opacity="1"/><path d="M721.4890230540186,-36.63286794908345L688.9788709022105,46.225951071828604L879.6061668545008,93.89800895936787Z" fill="#e9886f" stroke="#e9886f" fill-opacity="1" stroke-opacity="1"/><path d="M721.4890230540186,-36.63286794908345L879.6061668545008,93.89800895936787L878.2342502474785,-51.529234210029244Z" fill="#da856f" stroke="#da856f" fill-opacity="1" stroke-opacity="1"/><path d="M878.2342502474785,-51.529234210029244L879.6061668545008,93.89800895936787L942.4136409536004,69.6259396802634Z" fill="#e19074" stroke="#e19074" fill-opacity="1" stroke-opacity="1"/><path d="M878.2342502474785,-51.529234210029244L942.4136409536004,69.6259396802634L1002.2698411345482,-22.348270509392023Z" fill="#d28b73" stroke="#d28b73" fill-opacity="1" stroke-opacity="1"/><path d="M878.2342502474785,-51.529234210029244L1002.2698411345482,-22.348270509392023L1065.4585833381861,-18.873498905450106Z" fill="#c38571" stroke="#c38571" fill-opacity="1" stroke-opacity="1"/><path d="M878.2342502474785,-51.529234210029244L1065.4585833381861,-18.873498905450106L1398.3511999994516,-41.95897956378758Z" fill="#ad7b75" stroke="#ad7b75" fill-opacity="1" stroke-opacity="1"/><path d="M878.2342502474785,-51.529234210029244L1398.3511999994516,-41.95897956378758L1676.0010559111834,-82.66809487715364Z" fill="#826975" stroke="#826975" fill-opacity="1" stroke-opacity="1"/><path d="M1002.2698411345482,-22.348270509392023L942.4136409536004,69.6259396802634L1090.882381601259,51.25008414499462Z" fill="#d49077" stroke="#d49077" fill-opacity="1" stroke-opacity="1"/><path d="M1002.2698411345482,-22.348270509392023L1090.882381601259,51.25008414499462L1065.4585833381861,-18.873498905450106Z" fill="#c48777" stroke="#c48777" fill-opacity="1" stroke-opacity="1"/><path d="M1065.4585833381861,-18.873498905450106L1090.882381601259,51.25008414499462L1216.1754570621997,-15.490430993959308Z" fill="#ba8379" stroke="#ba8379" fill-opacity="1" stroke-opacity="1"/><path d="M1065.4585833381861,-18.873498905450106L1216.1754570621997,-15.490430993959308L1398.3511999994516,-41.95897956378758Z" fill="#9e7677" stroke="#9e7677" fill-opacity="1" stroke-opacity="1"/><path d="M1216.1754570621997,-15.490430993959308L1090.882381601259,51.25008414499462L1243.6060312204063,165.585801852867Z" fill="#c58c7f" stroke="#c58c7f" fill-opacity="1" stroke-opacity="1"/><path d="M1216.1754570621997,-15.490430993959308L1243.6060312204063,165.585801852867L1327.31326575391,84.80197970755398Z" fill="#ba8880" stroke="#ba8880" fill-opacity="1" stroke-opacity="1"/><path d="M1216.1754570621997,-15.490430993959308L1327.31326575391,84.80197970755398L1398.3511999994516,-41.95897956378758Z" fill="#9a777a" stroke="#9a777a" fill-opacity="1" stroke-opacity="1"/><path d="M1398.3511999994516,-41.95897956378758L1327.31326575391,84.80197970755398L1401.6058449447155,30.57985559105873Z" fill="#95737e" stroke="#95737e" fill-opacity="1" stroke-opacity="1"/><path d="M1398.3511999994516,-41.95897956378758L1401.6058449447155,30.57985559105873L1596.0103497561067,-22.072885120287538Z" fill="#7d5e80" stroke="#7d5e80" fill-opacity="1" stroke-opacity="1"/><path d="M1398.3511999994516,-41.95897956378758L1596.0103497561067,-22.072885120287538L1676.0010559111834,-82.66809487715364Z" fill="#694980" stroke="#694980" fill-opacity="1" stroke-opacity="1"/><path d="M1596.0103497561067,-22.072885120287538L1401.6058449447155,30.57985559105873L1553.2079189736396,131.96544039063156Z" fill="#8a6289" stroke="#8a6289" fill-opacity="1" stroke-opacity="1"/><path d="M1596.0103497561067,-22.072885120287538L1553.2079189736396,131.96544039063156L1760.8577727433294,132.51313869841397Z" fill="#9e5785" stroke="#9e5785" fill-opacity="1" stroke-opacity="1"/><path d="M1596.0103497561067,-22.072885120287538L1760.8577727433294,132.51313869841397L1676.0010559111834,-82.66809487715364Z" fill="#8a437d" stroke="#8a437d" fill-opacity="1" stroke-opacity="1"/><path d="M1676.0010559111834,-82.66809487715364L1760.8577727433294,132.51313869841397L1851.1329959146678,51.495882170274854Z" fill="#9d3b79" stroke="#9d3b79" fill-opacity="1" stroke-opacity="1"/><path d="M1676.0010559111834,-82.66809487715364L1851.1329959146678,51.495882170274854L1912.3533632978797,-93.07685575447977Z" fill="#89256f" stroke="#89256f" fill-opacity="1" stroke-opacity="1"/><path d="M1912.3533632978797,-93.07685575447977L1851.1329959146678,51.495882170274854L2003.6591477226466,122.1360681205988Z" fill="#ad226d" stroke="#ad226d" fill-opacity="1" stroke-opacity="1"/><path d="M1912.3533632978797,-93.07685575447977L2003.6591477226466,122.1360681205988L2072.797830104828,-46.62941356189549Z" fill="#aa1165" stroke="#aa1165" fill-opacity="1" stroke-opacity="1"/><path d="M2072.797830104828,-46.62941356189549L2003.6591477226466,122.1360681205988L2076.6223015263677,180.92182374559343Z" fill="#cf2369" stroke="#cf2369" fill-opacity="1" stroke-opacity="1"/><path d="M-33.331551449373364,89.51045935973525L-126.18856555782259,278.91890295781195L107.1155671030283,171.74760754220188Z" fill="#cc3d4a" stroke="#cc3d4a" fill-opacity="1" stroke-opacity="1"/><path d="M-33.331551449373364,89.51045935973525L107.1155671030283,171.74760754220188L31.371834883466363,31.463106460869312Z" fill="#d32b51" stroke="#d32b51" fill-opacity="1" stroke-opacity="1"/><path d="M278.1962446309626,126.45695068873465L107.1155671030283,171.74760754220188L246.5919520240277,213.78572763875127Z" fill="#ec5c51" stroke="#ec5c51" fill-opacity="1" stroke-opacity="1"/><path d="M278.1962446309626,126.45695068873465L246.5919520240277,213.78572763875127L422.2177523933351,242.28370439261198Z" fill="#f46f4c" stroke="#f46f4c" fill-opacity="1" stroke-opacity="1"/><path d="M278.1962446309626,126.45695068873465L422.2177523933351,242.28370439261198L347.5089194253087,74.71879824064672Z" fill="#f7664e" stroke="#f7664e" fill-opacity="1" stroke-opacity="1"/><path d="M347.5089194253087,74.71879824064672L422.2177523933351,242.28370439261198L541.4001968689263,109.22150527127087Z" fill="#fa7152" stroke="#fa7152" fill-opacity="1" stroke-opacity="1"/><path d="M541.4001968689263,109.22150527127087L422.2177523933351,242.28370439261198L533.0952777620405,208.17816889844835Z" fill="#fc8953" stroke="#fc8953" fill-opacity="1" stroke-opacity="1"/><path d="M541.4001968689263,109.22150527127087L533.0952777620405,208.17816889844835L627.4187380447984,175.04495632834733Z" fill="#fe8e5b" stroke="#fe8e5b" fill-opacity="1" stroke-opacity="1"/><path d="M541.4001968689263,109.22150527127087L627.4187380447984,175.04495632834733L688.9788709022105,46.225951071828604Z" fill="#fe8563" stroke="#fe8563" fill-opacity="1" stroke-opacity="1"/><path d="M688.9788709022105,46.225951071828604L627.4187380447984,175.04495632834733L810.323318419978,221.5602419525385Z" fill="#ff9c6b" stroke="#ff9c6b" fill-opacity="1" stroke-opacity="1"/><path d="M688.9788709022105,46.225951071828604L810.323318419978,221.5602419525385L879.6061668545008,93.89800895936787Z" fill="#fd9d74" stroke="#fd9d74" fill-opacity="1" stroke-opacity="1"/><path d="M879.6061668545008,93.89800895936787L810.323318419978,221.5602419525385L998.4344583749771,167.290330035612Z" fill="#f7ae75" stroke="#f7ae75" fill-opacity="1" stroke-opacity="1"/><path d="M879.6061668545008,93.89800895936787L998.4344583749771,167.290330035612L942.4136409536004,69.6259396802634Z" fill="#f3a27a" stroke="#f3a27a" fill-opacity="1" stroke-opacity="1"/><path d="M942.4136409536004,69.6259396802634L998.4344583749771,167.290330035612L1090.882381601259,51.25008414499462Z" fill="#ea9c7d" stroke="#ea9c7d" fill-opacity="1" stroke-opacity="1"/><path d="M1090.882381601259,51.25008414499462L998.4344583749771,167.290330035612L1151.8431504070759,259.0998827666044Z" fill="#e0aa7b" stroke="#e0aa7b" fill-opacity="1" stroke-opacity="1"/><path d="M1090.882381601259,51.25008414499462L1151.8431504070759,259.0998827666044L1243.6060312204063,165.585801852867Z" fill="#d3a57d" stroke="#d3a57d" fill-opacity="1" stroke-opacity="1"/><path d="M1327.31326575391,84.80197970755398L1243.6060312204063,165.585801852867L1366.3543997704983,171.26261489465833Z" fill="#b8947f" stroke="#b8947f" fill-opacity="1" stroke-opacity="1"/><path d="M1327.31326575391,84.80197970755398L1366.3543997704983,171.26261489465833L1401.6058449447155,30.57985559105873Z" fill="#ae8383" stroke="#ae8383" fill-opacity="1" stroke-opacity="1"/><path d="M1401.6058449447155,30.57985559105873L1366.3543997704983,171.26261489465833L1553.2079189736396,131.96544039063156Z" fill="#a57c87" stroke="#a57c87" fill-opacity="1" stroke-opacity="1"/><path d="M1553.2079189736396,131.96544039063156L1366.3543997704983,171.26261489465833L1584.686551624909,224.12737341597676Z" fill="#9d8586" stroke="#9d8586" fill-opacity="1" stroke-opacity="1"/><path d="M1553.2079189736396,131.96544039063156L1584.686551624909,224.12737341597676L1760.8577727433294,132.51313869841397Z" fill="#a46d82" stroke="#a46d82" fill-opacity="1" stroke-opacity="1"/><path d="M1760.8577727433294,132.51313869841397L1584.686551624909,224.12737341597676L1744.5530274510384,275.21676351316273Z" fill="#ab737e" stroke="#ab737e" fill-opacity="1" stroke-opacity="1"/><path d="M1760.8577727433294,132.51313869841397L1744.5530274510384,275.21676351316273L1866.4788946509361,178.18682041950524Z" fill="#b65f75" stroke="#b65f75" fill-opacity="1" stroke-opacity="1"/><path d="M1760.8577727433294,132.51313869841397L1866.4788946509361,178.18682041950524L1851.1329959146678,51.495882170274854Z" fill="#b94578" stroke="#b94578" fill-opacity="1" stroke-opacity="1"/><path d="M1851.1329959146678,51.495882170274854L1866.4788946509361,178.18682041950524L2003.6591477226466,122.1360681205988Z" fill="#c33872" stroke="#c33872" fill-opacity="1" stroke-opacity="1"/><path d="M2003.6591477226466,122.1360681205988L1866.4788946509361,178.18682041950524L2033.1214860733598,339.3895588070154Z" fill="#ca4c6b" stroke="#ca4c6b" fill-opacity="1" stroke-opacity="1"/><path d="M2003.6591477226466,122.1360681205988L2033.1214860733598,339.3895588070154L2076.6223015263677,180.92182374559343Z" fill="#d24867" stroke="#d24867" fill-opacity="1" stroke-opacity="1"/><path d="M-126.18856555782259,278.91890295781195L-124.92744879797101,841.118867425248L-106.78433588705957,679.7792626172304Z" fill="#9f7e7f" stroke="#9f7e7f" fill-opacity="1" stroke-opacity="1"/><path d="M-126.18856555782259,278.91890295781195L-106.78433588705957,679.7792626172304L-37.418346125632524,481.48960190825164Z" fill="#c28078" stroke="#c28078" fill-opacity="1" stroke-opacity="1"/><path d="M-126.18856555782259,278.91890295781195L-37.418346125632524,481.48960190825164L-59.06845925375819,351.5421661455184Z" fill="#c47b6c" stroke="#c47b6c" fill-opacity="1" stroke-opacity="1"/><path d="M-126.18856555782259,278.91890295781195L-59.06845925375819,351.5421661455184L107.1155671030283,171.74760754220188Z" fill="#cb5d55" stroke="#cb5d55" fill-opacity="1" stroke-opacity="1"/><path d="M107.1155671030283,171.74760754220188L-59.06845925375819,351.5421661455184L61.22833273373544,347.62633603066206Z" fill="#d46d5b" stroke="#d46d5b" fill-opacity="1" stroke-opacity="1"/><path d="M107.1155671030283,171.74760754220188L61.22833273373544,347.62633603066206L246.5919520240277,213.78572763875127Z" fill="#e36b56" stroke="#e36b56" fill-opacity="1" stroke-opacity="1"/><path d="M246.5919520240277,213.78572763875127L61.22833273373544,347.62633603066206L187.89794951677322,407.1701715979725Z" fill="#e68968" stroke="#e68968" fill-opacity="1" stroke-opacity="1"/><path d="M246.5919520240277,213.78572763875127L187.89794951677322,407.1701715979725L340.13616163283587,390.5033884383738Z" fill="#f0996b" stroke="#f0996b" fill-opacity="1" stroke-opacity="1"/><path d="M246.5919520240277,213.78572763875127L340.13616163283587,390.5033884383738L422.2177523933351,242.28370439261198Z" fill="#f6945b" stroke="#f6945b" fill-opacity="1" stroke-opacity="1"/><path d="M422.2177523933351,242.28370439261198L340.13616163283587,390.5033884383738L474.73676891997457,396.822819840163Z" fill="#faaf6a" stroke="#faaf6a" fill-opacity="1" stroke-opacity="1"/><path d="M422.2177523933351,242.28370439261198L474.73676891997457,396.822819840163L533.0952777620405,208.17816889844835Z" fill="#fca960" stroke="#fca960" fill-opacity="1" stroke-opacity="1"/><path d="M533.0952777620405,208.17816889844835L474.73676891997457,396.822819840163L680.4359065275639,343.71694690547884Z" fill="#fec26f" stroke="#fec26f" fill-opacity="1" stroke-opacity="1"/><path d="M533.0952777620405,208.17816889844835L680.4359065275639,343.71694690547884L627.4187380447984,175.04495632834733Z" fill="#feb065" stroke="#feb065" fill-opacity="1" stroke-opacity="1"/><path d="M627.4187380447984,175.04495632834733L680.4359065275639,343.71694690547884L810.323318419978,221.5602419525385Z" fill="#ffbd70" stroke="#ffbd70" fill-opacity="1" stroke-opacity="1"/><path d="M810.323318419978,221.5602419525385L680.4359065275639,343.71694690547884L878.5827529896051,409.69387935474515Z" fill="#fde088" stroke="#fde088" fill-opacity="1" stroke-opacity="1"/><path d="M810.323318419978,221.5602419525385L878.5827529896051,409.69387935474515L991.7328688781708,388.4865755494684Z" fill="#f7ea90" stroke="#f7ea90" fill-opacity="1" stroke-opacity="1"/><path d="M810.323318419978,221.5602419525385L991.7328688781708,388.4865755494684L998.4344583749771,167.290330035612Z" fill="#f4d37f" stroke="#f4d37f" fill-opacity="1" stroke-opacity="1"/><path d="M998.4344583749771,167.290330035612L991.7328688781708,388.4865755494684L1090.9162238705903,358.7679627444595Z" fill="#e8e18b" stroke="#e8e18b" fill-opacity="1" stroke-opacity="1"/><path d="M998.4344583749771,167.290330035612L1090.9162238705903,358.7679627444595L1151.8431504070759,259.0998827666044Z" fill="#e0ce84" stroke="#e0ce84" fill-opacity="1" stroke-opacity="1"/><path d="M1151.8431504070759,259.0998827666044L1090.9162238705903,358.7679627444595L1309.4115064758807,379.60317213088274Z" fill="#cfdd96" stroke="#cfdd96" fill-opacity="1" stroke-opacity="1"/><path d="M1151.8431504070759,259.0998827666044L1309.4115064758807,379.60317213088274L1243.6060312204063,165.585801852867Z" fill="#c6c687" stroke="#c6c687" fill-opacity="1" stroke-opacity="1"/><path d="M1243.6060312204063,165.585801852867L1309.4115064758807,379.60317213088274L1366.3543997704983,171.26261489465833Z" fill="#b9b682" stroke="#b9b682" fill-opacity="1" stroke-opacity="1"/><path d="M1366.3543997704983,171.26261489465833L1309.4115064758807,379.60317213088274L1413.4445899352431,434.1327186394483Z" fill="#b0ce96" stroke="#b0ce96" fill-opacity="1" stroke-opacity="1"/><path d="M1366.3543997704983,171.26261489465833L1413.4445899352431,434.1327186394483L1584.686551624909,224.12737341597676Z" fill="#a4b190" stroke="#a4b190" fill-opacity="1" stroke-opacity="1"/><path d="M1584.686551624909,224.12737341597676L1413.4445899352431,434.1327186394483L1629.0063556283712,363.9004282280803Z" fill="#99b6a4" stroke="#99b6a4" fill-opacity="1" stroke-opacity="1"/><path d="M1584.686551624909,224.12737341597676L1629.0063556283712,363.9004282280803L1744.5530274510384,275.21676351316273Z" fill="#a6988f" stroke="#a6988f" fill-opacity="1" stroke-opacity="1"/><path d="M1744.5530274510384,275.21676351316273L1629.0063556283712,363.9004282280803L1729.1652554366738,394.0881629381329Z" fill="#aca09a" stroke="#aca09a" fill-opacity="1" stroke-opacity="1"/><path d="M1744.5530274510384,275.21676351316273L1729.1652554366738,394.0881629381329L1828.070518327877,366.4109806716442Z" fill="#b39695" stroke="#b39695" fill-opacity="1" stroke-opacity="1"/><path d="M1744.5530274510384,275.21676351316273L1828.070518327877,366.4109806716442L1866.4788946509361,178.18682041950524Z" fill="#b87b81" stroke="#b87b81" fill-opacity="1" stroke-opacity="1"/><path d="M1866.4788946509361,178.18682041950524L1828.070518327877,366.4109806716442L2033.1214860733598,339.3895588070154Z" fill="#c4747f" stroke="#c4747f" fill-opacity="1" stroke-opacity="1"/><path d="M2076.6223015263677,180.92182374559343L2033.1214860733598,339.3895588070154L2012.405985435471,526.5814473945647Z" fill="#d37583" stroke="#d37583" fill-opacity="1" stroke-opacity="1"/><path d="M2076.6223015263677,180.92182374559343L2012.405985435471,526.5814473945647L2014.4603135995567,659.3867579195648Z" fill="#d28094" stroke="#d28094" fill-opacity="1" stroke-opacity="1"/><path d="M2076.6223015263677,180.92182374559343L2014.4603135995567,659.3867579195648L2029.5211564656347,1033.6048667225987Z" fill="#a97b9d" stroke="#a97b9d" fill-opacity="1" stroke-opacity="1"/><path d="M2076.6223015263677,180.92182374559343L2029.5211564656347,1033.6048667225987L2040.7085860613734,1123.8759711384773Z" fill="#7353ab" stroke="#7353ab" fill-opacity="1" stroke-opacity="1"/><path d="M-59.06845925375819,351.5421661455184L-37.418346125632524,481.48960190825164L19.2638476844877,481.8304836843163Z" fill="#cb8077" stroke="#cb8077" fill-opacity="1" stroke-opacity="1"/><path d="M-59.06845925375819,351.5421661455184L19.2638476844877,481.8304836843163L61.22833273373544,347.62633603066206Z" fill="#d08174" stroke="#d08174" fill-opacity="1" stroke-opacity="1"/><path d="M61.22833273373544,347.62633603066206L19.2638476844877,481.8304836843163L187.89794951677322,407.1701715979725Z" fill="#dc8e79" stroke="#dc8e79" fill-opacity="1" stroke-opacity="1"/><path d="M187.89794951677322,407.1701715979725L19.2638476844877,481.8304836843163L246.59325971268117,516.5956158097833Z" fill="#e4987f" stroke="#e4987f" fill-opacity="1" stroke-opacity="1"/><path d="M187.89794951677322,407.1701715979725L246.59325971268117,516.5956158097833L340.13616163283587,390.5033884383738Z" fill="#f0a77c" stroke="#f0a77c" fill-opacity="1" stroke-opacity="1"/><path d="M340.13616163283587,390.5033884383738L246.59325971268117,516.5956158097833L421.57242950052023,492.0898967050016Z" fill="#f6b07c" stroke="#f6b07c" fill-opacity="1" stroke-opacity="1"/><path d="M340.13616163283587,390.5033884383738L421.57242950052023,492.0898967050016L474.73676891997457,396.822819840163Z" fill="#fabb79" stroke="#fabb79" fill-opacity="1" stroke-opacity="1"/><path d="M474.73676891997457,396.822819840163L421.57242950052023,492.0898967050016L485.1243680343032,505.45056690461934Z" fill="#fcc380" stroke="#fcc380" fill-opacity="1" stroke-opacity="1"/><path d="M474.73676891997457,396.822819840163L485.1243680343032,505.45056690461934L680.3385825455189,508.86274069547653Z" fill="#fed287" stroke="#fed287" fill-opacity="1" stroke-opacity="1"/><path d="M474.73676891997457,396.822819840163L680.3385825455189,508.86274069547653L680.4359065275639,343.71694690547884Z" fill="#fedb8a" stroke="#fedb8a" fill-opacity="1" stroke-opacity="1"/><path d="M680.4359065275639,343.71694690547884L680.3385825455189,508.86274069547653L878.5827529896051,409.69387935474515Z" fill="#ffed98" stroke="#ffed98" fill-opacity="1" stroke-opacity="1"/><path d="M878.5827529896051,409.69387935474515L680.3385825455189,508.86274069547653L776.8054109159857,546.5161403641105Z" fill="#fef0a1" stroke="#fef0a1" fill-opacity="1" stroke-opacity="1"/><path d="M878.5827529896051,409.69387935474515L776.8054109159857,546.5161403641105L999.9242949765176,556.3031946402043Z" fill="#f3f6a5" stroke="#f3f6a5" fill-opacity="1" stroke-opacity="1"/><path d="M878.5827529896051,409.69387935474515L999.9242949765176,556.3031946402043L991.7328688781708,388.4865755494684Z" fill="#f3faa4" stroke="#f3faa4" fill-opacity="1" stroke-opacity="1"/><path d="M991.7328688781708,388.4865755494684L999.9242949765176,556.3031946402043L1087.9294069390744,542.3325422219932Z" fill="#e7f6a9" stroke="#e7f6a9" fill-opacity="1" stroke-opacity="1"/><path d="M991.7328688781708,388.4865755494684L1087.9294069390744,542.3325422219932L1090.9162238705903,358.7679627444595Z" fill="#e4f4a5" stroke="#e4f4a5" fill-opacity="1" stroke-opacity="1"/><path d="M1090.9162238705903,358.7679627444595L1087.9294069390744,542.3325422219932L1289.5243209321052,502.25755537860096Z" fill="#d5eeab" stroke="#d5eeab" fill-opacity="1" stroke-opacity="1"/><path d="M1090.9162238705903,358.7679627444595L1289.5243209321052,502.25755537860096L1309.4115064758807,379.60317213088274Z" fill="#c7e9a7" stroke="#c7e9a7" fill-opacity="1" stroke-opacity="1"/><path d="M1309.4115064758807,379.60317213088274L1289.5243209321052,502.25755537860096L1413.4445899352431,434.1327186394483Z" fill="#b4e1a9" stroke="#b4e1a9" fill-opacity="1" stroke-opacity="1"/><path d="M1413.4445899352431,434.1327186394483L1289.5243209321052,502.25755537860096L1413.2509274873883,509.8694600723684Z" fill="#afddaf" stroke="#afddaf" fill-opacity="1" stroke-opacity="1"/><path d="M1413.4445899352431,434.1327186394483L1413.2509274873883,509.8694600723684L1564.4159390497953,551.82851373218Z" fill="#a0cfb5" stroke="#a0cfb5" fill-opacity="1" stroke-opacity="1"/><path d="M1413.4445899352431,434.1327186394483L1564.4159390497953,551.82851373218L1629.0063556283712,363.9004282280803Z" fill="#99c4b6" stroke="#99c4b6" fill-opacity="1" stroke-opacity="1"/><path d="M1629.0063556283712,363.9004282280803L1564.4159390497953,551.82851373218L1744.5693860482424,524.0706838667393Z" fill="#a5b3b1" stroke="#a5b3b1" fill-opacity="1" stroke-opacity="1"/><path d="M1629.0063556283712,363.9004282280803L1744.5693860482424,524.0706838667393L1729.1652554366738,394.0881629381329Z" fill="#acaba9" stroke="#acaba9" fill-opacity="1" stroke-opacity="1"/><path d="M1729.1652554366738,394.0881629381329L1744.5693860482424,524.0706838667393L1820.0840594619513,483.27222403138876Z" fill="#b3a2a8" stroke="#b3a2a8" fill-opacity="1" stroke-opacity="1"/><path d="M1729.1652554366738,394.0881629381329L1820.0840594619513,483.27222403138876L1828.070518327877,366.4109806716442Z" fill="#b69ea2" stroke="#b69ea2" fill-opacity="1" stroke-opacity="1"/><path d="M1828.070518327877,366.4109806716442L1820.0840594619513,483.27222403138876L2012.405985435471,526.5814473945647Z" fill="#c1909e" stroke="#c1909e" fill-opacity="1" stroke-opacity="1"/><path d="M1828.070518327877,366.4109806716442L2012.405985435471,526.5814473945647L2033.1214860733598,339.3895588070154Z" fill="#c98596" stroke="#c98596" fill-opacity="1" stroke-opacity="1"/><path d="M-37.418346125632524,481.48960190825164L-106.78433588705957,679.7792626172304L50.498338378965855,666.5671337675303Z" fill="#a77d82" stroke="#a77d82" fill-opacity="1" stroke-opacity="1"/><path d="M-37.418346125632524,481.48960190825164L50.498338378965855,666.5671337675303L19.2638476844877,481.8304836843163Z" fill="#c28280" stroke="#c28280" fill-opacity="1" stroke-opacity="1"/><path d="M19.2638476844877,481.8304836843163L50.498338378965855,666.5671337675303L246.59325971268117,516.5956158097833Z" fill="#cd9184" stroke="#cd9184" fill-opacity="1" stroke-opacity="1"/><path d="M246.59325971268117,516.5956158097833L50.498338378965855,666.5671337675303L203.37752770632505,733.6733974702656Z" fill="#b79489" stroke="#b79489" fill-opacity="1" stroke-opacity="1"/><path d="M246.59325971268117,516.5956158097833L203.37752770632505,733.6733974702656L428.0251811631024,729.8229576554149Z" fill="#baa287" stroke="#baa287" fill-opacity="1" stroke-opacity="1"/><path d="M246.59325971268117,516.5956158097833L428.0251811631024,729.8229576554149L421.57242950052023,492.0898967050016Z" fill="#e1b484" stroke="#e1b484" fill-opacity="1" stroke-opacity="1"/><path d="M421.57242950052023,492.0898967050016L428.0251811631024,729.8229576554149L485.1243680343032,505.45056690461934Z" fill="#e5c188" stroke="#e5c188" fill-opacity="1" stroke-opacity="1"/><path d="M485.1243680343032,505.45056690461934L428.0251811631024,729.8229576554149L554.8516081273556,633.389245737344Z" fill="#d4c48c" stroke="#d4c48c" fill-opacity="1" stroke-opacity="1"/><path d="M485.1243680343032,505.45056690461934L554.8516081273556,633.389245737344L680.3385825455189,508.86274069547653Z" fill="#efd690" stroke="#efd690" fill-opacity="1" stroke-opacity="1"/><path d="M680.3385825455189,508.86274069547653L554.8516081273556,633.389245737344L633.9492610562593,652.4357599485666Z" fill="#e0db98" stroke="#e0db98" fill-opacity="1" stroke-opacity="1"/><path d="M680.3385825455189,508.86274069547653L633.9492610562593,652.4357599485666L776.8054109159857,546.5161403641105Z" fill="#eae79e" stroke="#eae79e" fill-opacity="1" stroke-opacity="1"/><path d="M776.8054109159857,546.5161403641105L633.9492610562593,652.4357599485666L803.2646856084466,695.2833223622292Z" fill="#d3e6a4" stroke="#d3e6a4" fill-opacity="1" stroke-opacity="1"/><path d="M776.8054109159857,546.5161403641105L803.2646856084466,695.2833223622292L999.9242949765176,556.3031946402043Z" fill="#dbf3ab" stroke="#dbf3ab" fill-opacity="1" stroke-opacity="1"/><path d="M999.9242949765176,556.3031946402043L803.2646856084466,695.2833223622292L929.4868468400091,730.4448531288654Z" fill="#bdefad" stroke="#bdefad" fill-opacity="1" stroke-opacity="1"/><path d="M999.9242949765176,556.3031946402043L929.4868468400091,730.4448531288654L1103.3890106901526,712.2378631867468Z" fill="#b0eeb0" stroke="#b0eeb0" fill-opacity="1" stroke-opacity="1"/><path d="M999.9242949765176,556.3031946402043L1103.3890106901526,712.2378631867468L1087.9294069390744,542.3325422219932Z" fill="#c2f2b1" stroke="#c2f2b1" fill-opacity="1" stroke-opacity="1"/><path d="M1087.9294069390744,542.3325422219932L1103.3890106901526,712.2378631867468L1305.1266979705542,640.773749705404Z" fill="#a6e8b4" stroke="#a6e8b4" fill-opacity="1" stroke-opacity="1"/><path d="M1087.9294069390744,542.3325422219932L1305.1266979705542,640.773749705404L1289.5243209321052,502.25755537860096Z" fill="#b5e9b2" stroke="#b5e9b2" fill-opacity="1" stroke-opacity="1"/><path d="M1289.5243209321052,502.25755537860096L1305.1266979705542,640.773749705404L1413.2509274873883,509.8694600723684Z" fill="#a4e1b2" stroke="#a4e1b2" fill-opacity="1" stroke-opacity="1"/><path d="M1413.2509274873883,509.8694600723684L1305.1266979705542,640.773749705404L1443.6165848281235,658.4395069722086Z" fill="#8dd8b7" stroke="#8dd8b7" fill-opacity="1" stroke-opacity="1"/><path d="M1413.2509274873883,509.8694600723684L1443.6165848281235,658.4395069722086L1564.4159390497953,551.82851373218Z" fill="#8bcdbc" stroke="#8bcdbc" fill-opacity="1" stroke-opacity="1"/><path d="M1564.4159390497953,551.82851373218L1443.6165848281235,658.4395069722086L1601.5115714538842,664.5207297429442Z" fill="#6fbfc1" stroke="#6fbfc1" fill-opacity="1" stroke-opacity="1"/><path d="M1564.4159390497953,551.82851373218L1601.5115714538842,664.5207297429442L1744.5693860482424,524.0706838667393Z" fill="#8db5b9" stroke="#8db5b9" fill-opacity="1" stroke-opacity="1"/><path d="M1744.5693860482424,524.0706838667393L1601.5115714538842,664.5207297429442L1750.5934890545905,703.3253741450608Z" fill="#7fa6b5" stroke="#7fa6b5" fill-opacity="1" stroke-opacity="1"/><path d="M1744.5693860482424,524.0706838667393L1750.5934890545905,703.3253741450608L1914.0067530144006,640.3114480152726Z" fill="#8f98ae" stroke="#8f98ae" fill-opacity="1" stroke-opacity="1"/><path d="M1744.5693860482424,524.0706838667393L1914.0067530144006,640.3114480152726L1820.0840594619513,483.27222403138876Z" fill="#ab99a9" stroke="#ab99a9" fill-opacity="1" stroke-opacity="1"/><path d="M1820.0840594619513,483.27222403138876L1914.0067530144006,640.3114480152726L2012.405985435471,526.5814473945647Z" fill="#b48ba3" stroke="#b48ba3" fill-opacity="1" stroke-opacity="1"/><path d="M2012.405985435471,526.5814473945647L1914.0067530144006,640.3114480152726L2014.4603135995567,659.3867579195648Z" fill="#a97fa2" stroke="#a97fa2" fill-opacity="1" stroke-opacity="1"/><path d="M-106.78433588705957,679.7792626172304L-124.92744879797101,841.118867425248L16.172672230750322,839.895849712193Z" fill="#63508f" stroke="#63508f" fill-opacity="1" stroke-opacity="1"/><path d="M-106.78433588705957,679.7792626172304L16.172672230750322,839.895849712193L50.498338378965855,666.5671337675303Z" fill="#7c6489" stroke="#7c6489" fill-opacity="1" stroke-opacity="1"/><path d="M50.498338378965855,666.5671337675303L16.172672230750322,839.895849712193L203.37752770632505,733.6733974702656Z" fill="#856d90" stroke="#856d90" fill-opacity="1" stroke-opacity="1"/><path d="M203.37752770632505,733.6733974702656L16.172672230750322,839.895849712193L253.17187774926424,810.4796912334859Z" fill="#866795" stroke="#866795" fill-opacity="1" stroke-opacity="1"/><path d="M203.37752770632505,733.6733974702656L253.17187774926424,810.4796912334859L357.3484101332724,820.7897751778364Z" fill="#907895" stroke="#907895" fill-opacity="1" stroke-opacity="1"/><path d="M203.37752770632505,733.6733974702656L357.3484101332724,820.7897751778364L428.0251811631024,729.8229576554149Z" fill="#9a8991" stroke="#9a8991" fill-opacity="1" stroke-opacity="1"/><path d="M428.0251811631024,729.8229576554149L357.3484101332724,820.7897751778364L501.4249205868691,824.2448338866234Z" fill="#9b8c94" stroke="#9b8c94" fill-opacity="1" stroke-opacity="1"/><path d="M428.0251811631024,729.8229576554149L501.4249205868691,824.2448338866234L554.8516081273556,633.389245737344Z" fill="#abad93" stroke="#abad93" fill-opacity="1" stroke-opacity="1"/><path d="M554.8516081273556,633.389245737344L501.4249205868691,824.2448338866234L633.9492610562593,652.4357599485666Z" fill="#b5c295" stroke="#b5c295" fill-opacity="1" stroke-opacity="1"/><path d="M633.9492610562593,652.4357599485666L501.4249205868691,824.2448338866234L666.6453394386917,808.7308203242719Z" fill="#a3b3a1" stroke="#a3b3a1" fill-opacity="1" stroke-opacity="1"/><path d="M633.9492610562593,652.4357599485666L666.6453394386917,808.7308203242719L803.2646856084466,695.2833223622292Z" fill="#b1cfa6" stroke="#b1cfa6" fill-opacity="1" stroke-opacity="1"/><path d="M803.2646856084466,695.2833223622292L666.6453394386917,808.7308203242719L883.9497470017523,771.8043620791286Z" fill="#a4cbb3" stroke="#a4cbb3" fill-opacity="1" stroke-opacity="1"/><path d="M803.2646856084466,695.2833223622292L883.9497470017523,771.8043620791286L929.4868468400091,730.4448531288654Z" fill="#a6d9b3" stroke="#a6d9b3" fill-opacity="1" stroke-opacity="1"/><path d="M929.4868468400091,730.4448531288654L883.9497470017523,771.8043620791286L961.298931017518,774.2311714589596Z" fill="#9ad2b8" stroke="#9ad2b8" fill-opacity="1" stroke-opacity="1"/><path d="M929.4868468400091,730.4448531288654L961.298931017518,774.2311714589596L1103.3890106901526,712.2378631867468Z" fill="#99d9b7" stroke="#99d9b7" fill-opacity="1" stroke-opacity="1"/><path d="M1103.3890106901526,712.2378631867468L961.298931017518,774.2311714589596L1144.0347580611706,872.4470587447286Z" fill="#81c4c0" stroke="#81c4c0" fill-opacity="1" stroke-opacity="1"/><path d="M1103.3890106901526,712.2378631867468L1144.0347580611706,872.4470587447286L1283.075276473537,808.5407935548574Z" fill="#73b9c0" stroke="#73b9c0" fill-opacity="1" stroke-opacity="1"/><path d="M1103.3890106901526,712.2378631867468L1283.075276473537,808.5407935548574L1305.1266979705542,640.773749705404Z" fill="#79d0ba" stroke="#79d0ba" fill-opacity="1" stroke-opacity="1"/><path d="M1305.1266979705542,640.773749705404L1283.075276473537,808.5407935548574L1402.2680114675313,765.3659023996443Z" fill="#61c3bd" stroke="#61c3bd" fill-opacity="1" stroke-opacity="1"/><path d="M1305.1266979705542,640.773749705404L1402.2680114675313,765.3659023996443L1443.6165848281235,658.4395069722086Z" fill="#69ceb8" stroke="#69ceb8" fill-opacity="1" stroke-opacity="1"/><path d="M1443.6165848281235,658.4395069722086L1402.2680114675313,765.3659023996443L1583.7062819860876,768.5332548525184Z" fill="#4fb1c4" stroke="#4fb1c4" fill-opacity="1" stroke-opacity="1"/><path d="M1443.6165848281235,658.4395069722086L1583.7062819860876,768.5332548525184L1601.5115714538842,664.5207297429442Z" fill="#53b3c2" stroke="#53b3c2" fill-opacity="1" stroke-opacity="1"/><path d="M1601.5115714538842,664.5207297429442L1583.7062819860876,768.5332548525184L1666.3022916018963,795.2379712276161Z" fill="#4d97c4" stroke="#4d97c4" fill-opacity="1" stroke-opacity="1"/><path d="M1601.5115714538842,664.5207297429442L1666.3022916018963,795.2379712276161L1750.5934890545905,703.3253741450608Z" fill="#5a97bd" stroke="#5a97bd" fill-opacity="1" stroke-opacity="1"/><path d="M1750.5934890545905,703.3253741450608L1666.3022916018963,795.2379712276161L1841.557569410652,867.3118818551302Z" fill="#5173bf" stroke="#5173bf" fill-opacity="1" stroke-opacity="1"/><path d="M1750.5934890545905,703.3253741450608L1841.557569410652,867.3118818551302L1914.0067530144006,640.3114480152726Z" fill="#6879b4" stroke="#6879b4" fill-opacity="1" stroke-opacity="1"/><path d="M1914.0067530144006,640.3114480152726L1841.557569410652,867.3118818551302L2006.335331685841,813.884645299986Z" fill="#6660b3" stroke="#6660b3" fill-opacity="1" stroke-opacity="1"/><path d="M1914.0067530144006,640.3114480152726L2006.335331685841,813.884645299986L2014.4603135995567,659.3867579195648Z" fill="#826fa5" stroke="#826fa5" fill-opacity="1" stroke-opacity="1"/><path d="M2014.4603135995567,659.3867579195648L2006.335331685841,813.884645299986L2029.5211564656347,1033.6048667225987Z" fill="#7c3fa5" stroke="#7c3fa5" fill-opacity="1" stroke-opacity="1"/><path d="M-124.92744879797101,841.118867425248L-52.66341822221875,1169.2723583243787L-32.22770243883133,994.1948231309652Z" fill="#9e056c" stroke="#9e056c" fill-opacity="1" stroke-opacity="1"/><path d="M-124.92744879797101,841.118867425248L-32.22770243883133,994.1948231309652L16.172672230750322,839.895849712193Z" fill="#842c7f" stroke="#842c7f" fill-opacity="1" stroke-opacity="1"/><path d="M16.172672230750322,839.895849712193L-32.22770243883133,994.1948231309652L59.45004369132221,990.9647718910128Z" fill="#9a1d78" stroke="#9a1d78" fill-opacity="1" stroke-opacity="1"/><path d="M16.172672230750322,839.895849712193L59.45004369132221,990.9647718910128L211.75586018711329,994.7704484593123Z" fill="#a52a7b" stroke="#a52a7b" fill-opacity="1" stroke-opacity="1"/><path d="M16.172672230750322,839.895849712193L211.75586018711329,994.7704484593123L253.17187774926424,810.4796912334859Z" fill="#9e4987" stroke="#9e4987" fill-opacity="1" stroke-opacity="1"/><path d="M253.17187774926424,810.4796912334859L211.75586018711329,994.7704484593123L357.3484101332724,820.7897751778364Z" fill="#a85a87" stroke="#a85a87" fill-opacity="1" stroke-opacity="1"/><path d="M357.3484101332724,820.7897751778364L211.75586018711329,994.7704484593123L323.371922057122,1031.1608151812106Z" fill="#be447a" stroke="#be447a" fill-opacity="1" stroke-opacity="1"/><path d="M357.3484101332724,820.7897751778364L323.371922057122,1031.1608151812106L504.0991113334894,1034.4746808428317Z" fill="#c94c76" stroke="#c94c76" fill-opacity="1" stroke-opacity="1"/><path d="M357.3484101332724,820.7897751778364L504.0991113334894,1034.4746808428317L501.4249205868691,824.2448338866234Z" fill="#b76e86" stroke="#b76e86" fill-opacity="1" stroke-opacity="1"/><path d="M501.4249205868691,824.2448338866234L504.0991113334894,1034.4746808428317L623.2081068959087,1030.934241861105Z" fill="#cc6481" stroke="#cc6481" fill-opacity="1" stroke-opacity="1"/><path d="M501.4249205868691,824.2448338866234L623.2081068959087,1030.934241861105L666.6453394386917,808.7308203242719Z" fill="#b98693" stroke="#b98693" fill-opacity="1" stroke-opacity="1"/><path d="M666.6453394386917,808.7308203242719L623.2081068959087,1030.934241861105L855.1548557169735,967.8693854715675Z" fill="#c68597" stroke="#c68597" fill-opacity="1" stroke-opacity="1"/><path d="M666.6453394386917,808.7308203242719L855.1548557169735,967.8693854715675L883.9497470017523,771.8043620791286Z" fill="#adacac" stroke="#adacac" fill-opacity="1" stroke-opacity="1"/><path d="M883.9497470017523,771.8043620791286L855.1548557169735,967.8693854715675L961.298931017518,774.2311714589596Z" fill="#a3b5b2" stroke="#a3b5b2" fill-opacity="1" stroke-opacity="1"/><path d="M961.298931017518,774.2311714589596L855.1548557169735,967.8693854715675L997.8683634661138,1017.4730960000306Z" fill="#b79ba6" stroke="#b79ba6" fill-opacity="1" stroke-opacity="1"/><path d="M961.298931017518,774.2311714589596L997.8683634661138,1017.4730960000306L1066.4158695470542,1007.2727690823376Z" fill="#b295a6" stroke="#b295a6" fill-opacity="1" stroke-opacity="1"/><path d="M961.298931017518,774.2311714589596L1066.4158695470542,1007.2727690823376L1144.0347580611706,872.4470587447286Z" fill="#9da3af" stroke="#9da3af" fill-opacity="1" stroke-opacity="1"/><path d="M1144.0347580611706,872.4470587447286L1066.4158695470542,1007.2727690823376L1307.8421416506171,998.8808960281312Z" fill="#9f81a6" stroke="#9f81a6" fill-opacity="1" stroke-opacity="1"/><path d="M1144.0347580611706,872.4470587447286L1307.8421416506171,998.8808960281312L1283.075276473537,808.5407935548574Z" fill="#8193b1" stroke="#8193b1" fill-opacity="1" stroke-opacity="1"/><path d="M1283.075276473537,808.5407935548574L1307.8421416506171,998.8808960281312L1381.3684076908976,987.1595665812492Z" fill="#7c80ab" stroke="#7c80ab" fill-opacity="1" stroke-opacity="1"/><path d="M1283.075276473537,808.5407935548574L1381.3684076908976,987.1595665812492L1402.2680114675313,765.3659023996443Z" fill="#6298b8" stroke="#6298b8" fill-opacity="1" stroke-opacity="1"/><path d="M1402.2680114675313,765.3659023996443L1381.3684076908976,987.1595665812492L1583.7062819860876,768.5332548525184Z" fill="#518dc1" stroke="#518dc1" fill-opacity="1" stroke-opacity="1"/><path d="M1583.7062819860876,768.5332548525184L1381.3684076908976,987.1595665812492L1626.409376040101,1026.1361932754517Z" fill="#5e64b7" stroke="#5e64b7" fill-opacity="1" stroke-opacity="1"/><path d="M1583.7062819860876,768.5332548525184L1626.409376040101,1026.1361932754517L1666.3022916018963,795.2379712276161Z" fill="#576cbc" stroke="#576cbc" fill-opacity="1" stroke-opacity="1"/><path d="M1666.3022916018963,795.2379712276161L1626.409376040101,1026.1361932754517L1721.7097377497703,1000.412732642144Z" fill="#714bac" stroke="#714bac" fill-opacity="1" stroke-opacity="1"/><path d="M1666.3022916018963,795.2379712276161L1721.7097377497703,1000.412732642144L1841.557569410652,867.3118818551302Z" fill="#6b52b0" stroke="#6b52b0" fill-opacity="1" stroke-opacity="1"/><path d="M1841.557569410652,867.3118818551302L1721.7097377497703,1000.412732642144L1832.9029718320817,946.1132755503058Z" fill="#7f39a3" stroke="#7f39a3" fill-opacity="1" stroke-opacity="1"/><path d="M1841.557569410652,867.3118818551302L1832.9029718320817,946.1132755503058L2006.335331685841,813.884645299986Z" fill="#7940a7" stroke="#7940a7" fill-opacity="1" stroke-opacity="1"/><path d="M2006.335331685841,813.884645299986L1832.9029718320817,946.1132755503058L2029.5211564656347,1033.6048667225987Z" fill="#8f239a" stroke="#8f239a" fill-opacity="1" stroke-opacity="1"/><path d="M-32.22770243883133,994.1948231309652L-52.66341822221875,1169.2723583243787L26.32995276711881,1104.0563386771828Z" fill="#bd005f" stroke="#bd005f" fill-opacity="1" stroke-opacity="1"/><path d="M-32.22770243883133,994.1948231309652L26.32995276711881,1104.0563386771828L59.45004369132221,990.9647718910128Z" fill="#b2046a" stroke="#b2046a" fill-opacity="1" stroke-opacity="1"/><path d="M59.45004369132221,990.9647718910128L26.32995276711881,1104.0563386771828L172.23311947658658,1118.3970786631107Z" fill="#c70e66" stroke="#c70e66" fill-opacity="1" stroke-opacity="1"/><path d="M59.45004369132221,990.9647718910128L172.23311947658658,1118.3970786631107L211.75586018711329,994.7704484593123Z" fill="#c6186e" stroke="#c6186e" fill-opacity="1" stroke-opacity="1"/><path d="M211.75586018711329,994.7704484593123L172.23311947658658,1118.3970786631107L323.371922057122,1031.1608151812106Z" fill="#d3256b" stroke="#d3256b" fill-opacity="1" stroke-opacity="1"/><path d="M323.371922057122,1031.1608151812106L172.23311947658658,1118.3970786631107L410.9000583831221,1094.3411077279598Z" fill="#e22d64" stroke="#e22d64" fill-opacity="1" stroke-opacity="1"/><path d="M323.371922057122,1031.1608151812106L410.9000583831221,1094.3411077279598L504.0991113334894,1034.4746808428317Z" fill="#e13c68" stroke="#e13c68" fill-opacity="1" stroke-opacity="1"/><path d="M504.0991113334894,1034.4746808428317L410.9000583831221,1094.3411077279598L476.54853944666684,1138.226572405547Z" fill="#ed4466" stroke="#ed4466" fill-opacity="1" stroke-opacity="1"/><path d="M504.0991113334894,1034.4746808428317L476.54853944666684,1138.226572405547L623.2081068959087,1030.934241861105Z" fill="#e85070" stroke="#e85070" fill-opacity="1" stroke-opacity="1"/><path d="M623.2081068959087,1030.934241861105L476.54853944666684,1138.226572405547L671.5818180609494,1077.722128937021Z" fill="#ed5972" stroke="#ed5972" fill-opacity="1" stroke-opacity="1"/><path d="M623.2081068959087,1030.934241861105L671.5818180609494,1077.722128937021L855.1548557169735,967.8693854715675Z" fill="#de6a89" stroke="#de6a89" fill-opacity="1" stroke-opacity="1"/><path d="M855.1548557169735,967.8693854715675L671.5818180609494,1077.722128937021L779.4929289724678,1175.4435124062002Z" fill="#eb7087" stroke="#eb7087" fill-opacity="1" stroke-opacity="1"/><path d="M855.1548557169735,967.8693854715675L779.4929289724678,1175.4435124062002L983.7797988485545,1117.579369051382Z" fill="#e87688" stroke="#e87688" fill-opacity="1" stroke-opacity="1"/><path d="M855.1548557169735,967.8693854715675L983.7797988485545,1117.579369051382L997.8683634661138,1017.4730960000306Z" fill="#d67a93" stroke="#d67a93" fill-opacity="1" stroke-opacity="1"/><path d="M997.8683634661138,1017.4730960000306L983.7797988485545,1117.579369051382L1066.4158695470542,1007.2727690823376Z" fill="#d07794" stroke="#d07794" fill-opacity="1" stroke-opacity="1"/><path d="M1066.4158695470542,1007.2727690823376L983.7797988485545,1117.579369051382L1135.4094215668738,1119.83448587358Z" fill="#d2748f" stroke="#d2748f" fill-opacity="1" stroke-opacity="1"/><path d="M1066.4158695470542,1007.2727690823376L1135.4094215668738,1119.83448587358L1307.8421416506171,998.8808960281312Z" fill="#b66d98" stroke="#b66d98" fill-opacity="1" stroke-opacity="1"/><path d="M1307.8421416506171,998.8808960281312L1135.4094215668738,1119.83448587358L1313.7227485142648,1174.850365659222Z" fill="#b66890" stroke="#b66890" fill-opacity="1" stroke-opacity="1"/><path d="M1307.8421416506171,998.8808960281312L1313.7227485142648,1174.850365659222L1416.592937540263,1112.5333907827735Z" fill="#a56190" stroke="#a56190" fill-opacity="1" stroke-opacity="1"/><path d="M1307.8421416506171,998.8808960281312L1416.592937540263,1112.5333907827735L1381.3684076908976,987.1595665812492Z" fill="#915e9c" stroke="#915e9c" fill-opacity="1" stroke-opacity="1"/><path d="M1381.3684076908976,987.1595665812492L1416.592937540263,1112.5333907827735L1527.9919966869056,1108.8812330458313Z" fill="#91529a" stroke="#91529a" fill-opacity="1" stroke-opacity="1"/><path d="M1381.3684076908976,987.1595665812492L1527.9919966869056,1108.8812330458313L1626.409376040101,1026.1361932754517Z" fill="#8048a4" stroke="#8048a4" fill-opacity="1" stroke-opacity="1"/><path d="M1626.409376040101,1026.1361932754517L1527.9919966869056,1108.8812330458313L1670.2584590110928,1137.6292663346976Z" fill="#933a98" stroke="#933a98" fill-opacity="1" stroke-opacity="1"/><path d="M1626.409376040101,1026.1361932754517L1670.2584590110928,1137.6292663346976L1721.7097377497703,1000.412732642144Z" fill="#903099" stroke="#903099" fill-opacity="1" stroke-opacity="1"/><path d="M1721.7097377497703,1000.412732642144L1670.2584590110928,1137.6292663346976L1882.2384770773351,1168.1332453619689Z" fill="#a7238c" stroke="#a7238c" fill-opacity="1" stroke-opacity="1"/><path d="M1721.7097377497703,1000.412732642144L1882.2384770773351,1168.1332453619689L1832.9029718320817,946.1132755503058Z" fill="#9b1b92" stroke="#9b1b92" fill-opacity="1" stroke-opacity="1"/><path d="M1832.9029718320817,946.1132755503058L1882.2384770773351,1168.1332453619689L2029.5211564656347,1033.6048667225987Z" fill="#aa0c89" stroke="#aa0c89" fill-opacity="1" stroke-opacity="1"/><path d="M2029.5211564656347,1033.6048667225987L1882.2384770773351,1168.1332453619689L2040.7085860613734,1123.8759711384773Z" fill="#c2027b" stroke="#c2027b" fill-opacity="1" stroke-opacity="1"/><path d="M-52.66341822221875,1169.2723583243787L779.4929289724678,1175.4435124062002L476.54853944666684,1138.226572405547Z" fill="#fa3a56" stroke="#fa3a56" fill-opacity="1" stroke-opacity="1"/><path d="M-52.66341822221875,1169.2723583243787L476.54853944666684,1138.226572405547L172.23311947658658,1118.3970786631107Z" fill="#ea205e" stroke="#ea205e" fill-opacity="1" stroke-opacity="1"/><path d="M-52.66341822221875,1169.2723583243787L172.23311947658658,1118.3970786631107L26.32995276711881,1104.0563386771828Z" fill="#d2085a" stroke="#d2085a" fill-opacity="1" stroke-opacity="1"/><path d="M172.23311947658658,1118.3970786631107L476.54853944666684,1138.226572405547L410.9000583831221,1094.3411077279598Z" fill="#f0335d" stroke="#f0335d" fill-opacity="1" stroke-opacity="1"/><path d="M476.54853944666684,1138.226572405547L779.4929289724678,1175.4435124062002L671.5818180609494,1077.722128937021Z" fill="#fa6070" stroke="#fa6070" fill-opacity="1" stroke-opacity="1"/><path d="M779.4929289724678,1175.4435124062002L1313.7227485142648,1174.850365659222L983.7797988485545,1117.579369051382Z" fill="#e97782" stroke="#e97782" fill-opacity="1" stroke-opacity="1"/><path d="M983.7797988485545,1117.579369051382L1313.7227485142648,1174.850365659222L1135.4094215668738,1119.83448587358Z" fill="#d46f89" stroke="#d46f89" fill-opacity="1" stroke-opacity="1"/><path d="M1313.7227485142648,1174.850365659222L1882.2384770773351,1168.1332453619689L1670.2584590110928,1137.6292663346976Z" fill="#a3378c" stroke="#a3378c" fill-opacity="1" stroke-opacity="1"/><path d="M1313.7227485142648,1174.850365659222L1670.2584590110928,1137.6292663346976L1527.9919966869056,1108.8812330458313Z" fill="#9c4993" stroke="#9c4993" fill-opacity="1" stroke-opacity="1"/><path d="M1313.7227485142648,1174.850365659222L1527.9919966869056,1108.8812330458313L1416.592937540263,1112.5333907827735Z" fill="#a5568f" stroke="#a5568f" fill-opacity="1" stroke-opacity="1"/></g><filter id="noise"><feTurbulence type="fractalNoise" in="fillPaint" fill="#F00" baseFrequency="0.7" numOctaves="10" stitchTiles="stitch"/><feComponentTransfer><feFuncR type="linear" slope="2" intercept="-.5"/><feFuncG type="linear" slope="2" intercept="-.5"/><feFuncB type="linear" slope="2" intercept="-.5"/></feComponentTransfer><feColorMatrix type="matrix" values="0.3333 0.3333 0.3333 0 0 
 0.3333 0.3333 0.3333 0 0 
 0.3333 0.3333 0.3333 0 0 
 0 0 0 1 0"/></filter><rect opacity="0.6000000000000001" width="100%" height="100%" filter="url(#noise)"/></svg>